<?xml version="1.0" encoding="UTF-8"?>
<!DOCTYPE svg PUBLIC "-//W3C//DTD SVG 1.1//EN" "http://www.w3.org/Graphics/SVG/1.1/DTD/svg11.dtd">
<svg xmlns="http://www.w3.org/2000/svg" version="1.1" width="432px" height="116px" style="shape-rendering:geometricPrecision; text-rendering:geometricPrecision; image-rendering:optimizeQuality; fill-rule:evenodd; clip-rule:evenodd" xmlns:xlink="http://www.w3.org/1999/xlink">
<g><path style="opacity:1" fill="#fefefb" d="M -0.5,-0.5 C 12.8333,-0.5 26.1667,-0.5 39.5,-0.5C 8.6899,7.78683 -0.810098,26.7868 11,56.5C 15.8648,62.0164 21.6982,66.183 28.5,69C 35.0749,71.3103 41.7416,73.3103 48.5,75C 53.3871,78.2249 53.7204,81.8916 49.5,86C 46.8333,86.6667 44.1667,86.6667 41.5,86C 35.9107,83.4005 30.5773,80.4005 25.5,77C 19.6052,75.4913 14.4385,76.658 10,80.5C 6.70137,85.5995 3.53471,90.7662 0.5,96C 5.64021,102.917 12.3069,107.917 20.5,111C 25.5351,112.849 30.5351,114.349 35.5,115.5C 23.5,115.5 11.5,115.5 -0.5,115.5C -0.5,76.8333 -0.5,38.1667 -0.5,-0.5 Z"/></g>
<g><path style="opacity:1" fill="#e4de1c" d="M 39.5,-0.5 C 44.1667,-0.5 48.8333,-0.5 53.5,-0.5C 63.2925,0.720771 72.2925,4.22077 80.5,10C 75,17.5 69.5,25 64,32.5C 57.6023,27.1362 50.4356,25.3029 42.5,27C 38.1433,31.5512 38.81,35.2179 44.5,38C 54.7667,40.6419 64.4334,44.6419 73.5,50C 84.8922,59.8483 88.3922,72.0149 84,86.5C 78.2668,103.741 66.4335,113.408 48.5,115.5C 44.1667,115.5 39.8333,115.5 35.5,115.5C 30.5351,114.349 25.5351,112.849 20.5,111C 12.3069,107.917 5.64021,102.917 0.5,96C 3.53471,90.7662 6.70137,85.5995 10,80.5C 14.4385,76.658 19.6052,75.4913 25.5,77C 30.5773,80.4005 35.9107,83.4005 41.5,86C 44.1667,86.6667 46.8333,86.6667 49.5,86C 53.7204,81.8916 53.3871,78.2249 48.5,75C 41.7416,73.3103 35.0749,71.3103 28.5,69C 21.6982,66.183 15.8648,62.0164 11,56.5C -0.810098,26.7868 8.6899,7.78683 39.5,-0.5 Z"/></g>
<g><path style="opacity:1" fill="#fefefc" d="M 53.5,-0.5 C 179.5,-0.5 305.5,-0.5 431.5,-0.5C 431.5,0.166667 431.5,0.833333 431.5,1.5C 421.319,1.17265 411.319,1.50598 401.5,2.5C 399.321,2.83997 397.488,3.83997 396,5.5C 387,22.8333 378,40.1667 369,57.5C 359.868,38.7339 350.368,20.2339 340.5,2C 329.505,1.50015 318.505,1.33349 307.5,1.5C 307.5,38.5 307.5,75.5 307.5,112.5C 318.167,112.5 328.833,112.5 339.5,112.5C 339.333,97.4963 339.5,82.4963 340,67.5C 349.667,82.5 359.333,97.5 369,112.5C 378.667,97.5 388.333,82.5 398,67.5C 398.5,82.4963 398.667,97.4963 398.5,112.5C 409.167,112.5 419.833,112.5 430.5,112.5C 430.833,112.5 431.167,112.5 431.5,112.5C 431.5,113.5 431.5,114.5 431.5,115.5C 303.833,115.5 176.167,115.5 48.5,115.5C 66.4335,113.408 78.2668,103.741 84,86.5C 88.3922,72.0149 84.8922,59.8483 73.5,50C 64.4334,44.6419 54.7667,40.6419 44.5,38C 38.81,35.2179 38.1433,31.5512 42.5,27C 50.4356,25.3029 57.6023,27.1362 64,32.5C 69.5,25 75,17.5 80.5,10C 72.2925,4.22077 63.2925,0.720771 53.5,-0.5 Z"/></g>
<g><path style="opacity:1" fill="#ede97f" d="M 401.5,2.5 C 411.319,1.50598 421.319,1.17265 431.5,1.5C 431.5,38.5 431.5,75.5 431.5,112.5C 431.167,112.5 430.833,112.5 430.5,112.5C 430.5,75.8333 430.5,39.1667 430.5,2.5C 420.833,2.5 411.167,2.5 401.5,2.5 Z"/></g>
<g><path style="opacity:1" fill="#e4de1b" d="M 125.5,1.5 C 125.333,14.5043 125.5,27.5043 126,40.5C 126.717,39.9558 127.217,39.2891 127.5,38.5C 135.948,26.2124 144.614,14.0457 153.5,2C 167.5,1.33333 181.5,1.33333 195.5,2C 182.448,18.7177 169.781,35.7177 157.5,53C 167.543,68.2528 177.709,83.4195 188,98.5C 200.777,66.6116 213.277,34.6116 225.5,2.5C 236.151,1.33431 246.818,1.16764 257.5,2C 271.637,38.7456 285.971,75.4122 300.5,112C 289.094,112.933 277.761,112.6 266.5,111C 261.168,105.186 257.835,98.3531 256.5,90.5C 246.5,90.5 236.5,90.5 226.5,90.5C 224.295,97.7822 222.295,105.116 220.5,112.5C 199.831,112.667 179.164,112.5 158.5,112C 156.246,110.623 154.08,109.123 152,107.5C 144.667,96.1667 137.333,84.8333 130,73.5C 129.092,71.5614 127.592,70.5614 125.5,70.5C 125.5,84.5 125.5,98.5 125.5,112.5C 113.833,112.5 102.167,112.5 90.5,112.5C 90.5,75.5 90.5,38.5 90.5,1.5C 102.167,1.5 113.833,1.5 125.5,1.5 Z"/></g>
<g><path style="opacity:1" fill="#f5f3b9" d="M 125.5,1.5 C 126.167,13.8333 126.833,26.1667 127.5,38.5C 127.217,39.2891 126.717,39.9558 126,40.5C 125.5,27.5043 125.333,14.5043 125.5,1.5 Z"/></g>
<g><path style="opacity:1" fill="#e4dd1a" d="M 401.5,2.5 C 411.167,2.5 420.833,2.5 430.5,2.5C 430.5,39.1667 430.5,75.8333 430.5,112.5C 419.833,112.5 409.167,112.5 398.5,112.5C 398.667,97.4963 398.5,82.4963 398,67.5C 388.333,82.5 378.667,97.5 369,112.5C 359.333,97.5 349.667,82.5 340,67.5C 339.5,82.4963 339.333,97.4963 339.5,112.5C 328.833,112.5 318.167,112.5 307.5,112.5C 307.5,75.5 307.5,38.5 307.5,1.5C 318.505,1.33349 329.505,1.50015 340.5,2C 350.368,20.2339 359.868,38.7339 369,57.5C 378,40.1667 387,22.8333 396,5.5C 397.488,3.83997 399.321,2.83997 401.5,2.5 Z"/></g>
<g><path style="opacity:1" fill="#fdfcf2" d="M 246.5,62.5 C 243.287,62.81 240.287,62.4767 237.5,61.5C 238.309,56.9062 239.809,52.5729 242,48.5C 243.607,53.1536 245.107,57.8203 246.5,62.5 Z"/></g>
<g><path style="opacity:1" fill="#f0ec94" d="M 237.5,61.5 C 240.287,62.4767 243.287,62.81 246.5,62.5C 243.313,63.8056 239.98,63.8056 236.5,62.5C 236.624,61.8933 236.957,61.56 237.5,61.5 Z"/></g>
</svg>
