<?xml version="1.0" encoding="UTF-8"?>
<svg version="1.1" xmlns="http://www.w3.org/2000/svg" width="1024" height="552">
<path d="M0 0 C1.0484761 0.00090637 1.0484761 0.00090637 2.11813354 0.00183105 C14.00512935 0.02956293 25.71893724 0.52829182 37.5 2.1875 C38.83272949 2.3728833 38.83272949 2.3728833 40.19238281 2.56201172 C63.41082345 5.92139676 85.86889197 12.12730575 107.5 21.1875 C108.32661133 21.53006836 109.15322266 21.87263672 110.00488281 22.22558594 C139.20211127 34.4490062 165.65902115 51.83899952 188.66015625 73.53515625 C190.8524807 75.58273301 193.05963724 77.53467404 195.375 79.4375 C198.41538517 82.00328846 200.94815898 84.86519225 203.515625 87.8984375 C204.92354477 89.52253393 206.37678391 91.10783278 207.859375 92.6640625 C238.99421164 125.36485246 258.56615225 166.02891847 270.5 209.1875 C270.80067383 208.11773926 270.80067383 208.11773926 271.10742188 207.02636719 C275.44392908 191.71092508 280.08125699 176.76453204 286.5 162.1875 C286.84643555 161.3944043 287.19287109 160.60130859 287.54980469 159.78417969 C295.24193319 142.36604789 305.05779011 126.38377339 316.5 111.1875 C316.93280273 110.6104834 317.36560547 110.0334668 317.81152344 109.43896484 C324.53538084 100.53194118 331.74849632 92.21218443 339.5 84.1875 C340.09893066 83.56665527 340.69786133 82.94581055 341.31494141 82.30615234 C348.97956548 74.40417216 356.71471105 66.85333799 365.5 60.1875 C366.52867187 59.40076904 366.52867187 59.40076904 367.578125 58.59814453 C377.84645657 50.77247092 388.18776388 43.4203001 399.5 37.1875 C400.72831543 36.50373291 400.72831543 36.50373291 401.98144531 35.80615234 C431.0447361 19.75098534 461.80972892 8.92594383 494.5 3.1875 C495.40153809 3.02233887 496.30307617 2.85717773 497.23193359 2.68701172 C526.88573575 -2.52571809 560.93562641 -2.5903489 590.5 3.1875 C591.53785645 3.38085938 592.57571289 3.57421875 593.64501953 3.7734375 C617.45831845 8.30198268 640.72766235 15.46340246 662.5 26.1875 C663.37543457 26.61369629 664.25086914 27.03989258 665.15283203 27.47900391 C688.87930413 39.12654475 710.52052223 53.60571074 729.80859375 71.6796875 C732.14662267 73.85822824 734.51920007 75.9741737 736.9375 78.0625 C738.12536735 79.10374774 739.3129045 80.14537238 740.5 81.1875 C741.30824219 81.87779297 741.30824219 81.87779297 742.1328125 82.58203125 C743.5625 83.875 743.5625 83.875 745.5 86.1875 C745.29571082 90.30881213 742.58153659 92.61382602 739.875 95.5 C739.39643555 96.01272461 738.91787109 96.52544922 738.42480469 97.05371094 C733.69992893 102.07183421 728.81334471 106.93413405 723.89208984 111.7590332 C720.81612153 114.79070426 717.8663464 117.86773917 715.046875 121.140625 C710.77807668 126.08860468 706.12328787 130.61446669 701.4609375 135.1875 C698.19334698 138.41724198 695.02847667 141.67261625 692.03125 145.15625 C687.57439395 150.33064977 682.6855361 155.05000569 677.81640625 159.83203125 C673.71641431 163.88753865 669.81913397 168.01438843 666.12304688 172.44335938 C664.3968577 174.29833763 662.56562819 175.72743056 660.5 177.1875 C659.61699219 176.20910156 658.73398437 175.23070312 657.82421875 174.22265625 C631.33299794 145.15471403 596.25853623 125.60178854 556.5 123.1875 C512.14732675 121.19855618 471.51643685 133.58808988 438.375 163.5625 C412.72271759 187.40492025 396.09269619 217.28300899 391.5 252.1875 C391.36980469 253.14398438 391.23960937 254.10046875 391.10546875 255.0859375 C386.46979728 296.25070017 399.21778413 337.427456 424.72998047 369.74560547 C449.66513991 400.98728623 485.90370973 421.78141226 525.5 427.5 C563.87548633 431.5213833 602.9189354 422.22710993 633.67578125 398.4921875 C637.31321999 395.52387649 640.80674416 392.42539756 644.24609375 389.23046875 C646.5 387.1875 646.5 387.1875 649.0625 385.19140625 C652.08972823 382.70267535 654.33393711 379.85956112 656.75390625 376.796875 C658.5 375.1875 658.5 375.1875 662.5 375.1875 C664.59935262 376.96410307 666.43346034 378.70101843 668.3125 380.6875 C668.80814453 381.1928125 669.30378906 381.698125 669.81445312 382.21875 C672.60692016 385.09387693 675.26958718 388.05861982 677.88671875 391.09375 C681.56423615 395.32905039 685.4973208 399.26150048 689.5 403.1875 C693.45867373 407.07033707 697.35058338 410.95090662 700.96875 415.15625 C704.76142048 419.55953182 708.85573206 423.61736924 713 427.6875 C717.12776802 431.74142601 721.20531072 435.77769517 724.96875 440.17578125 C727.49311995 443.11437342 730.13790549 445.83366352 732.9375 448.51171875 C733.68644531 449.23037109 734.43539062 449.94902344 735.20703125 450.68945312 C736.75793275 452.1676974 738.31813905 453.63623085 739.88671875 455.09570312 C740.99466797 456.16788086 740.99466797 456.16788086 742.125 457.26171875 C742.79789063 457.89682373 743.47078125 458.53192871 744.1640625 459.1862793 C745.5 461.1875 745.5 461.1875 745.30883789 463.80834961 C744.3357244 466.67070729 743.12995329 467.99447165 740.9375 470.0625 C740.21175781 470.75214844 739.48601563 471.44179688 738.73828125 472.15234375 C736.05595642 474.59124643 733.35416629 477.00000032 730.6015625 479.359375 C729.15749169 480.61555555 727.73650907 481.89862151 726.3359375 483.203125 C688.58214645 518.305312 638.72286401 539.05996584 588.5 548.1875 C587.14938477 548.4352417 587.14938477 548.4352417 585.77148438 548.68798828 C556.08857905 553.8319613 523.13699145 553.32482874 493.5 548.1875 C492.37770996 547.99945801 491.25541992 547.81141602 490.09912109 547.61767578 C463.79403902 543.07758404 438.42911347 535.075242 414.5 523.1875 C413.77603027 522.83365234 413.05206055 522.47980469 412.30615234 522.11523438 C392.82639786 512.52223352 374.72808572 499.97216591 358.76171875 485.265625 C356.70973584 483.38021065 354.61848046 481.55979967 352.5 479.75 C344.90175863 473.11880754 338.07761199 465.81372979 331.5 458.1875 C330.95706299 457.56190186 330.41412598 456.93630371 329.85473633 456.29174805 C300.25592115 421.95820055 283.25356517 383.23444391 270.5 340.1875 C270.32984375 340.79932129 270.1596875 341.41114258 269.984375 342.04150391 C252.90854552 403.02174336 220.81288324 458.48680059 168.5 496.1875 C167.41162639 497.00369833 166.32439856 497.8214266 165.23828125 498.640625 C125.4427343 528.29186586 76.75831015 546.21983603 27.5 551.1875 C26.47132813 551.29964844 25.44265625 551.41179688 24.3828125 551.52734375 C-46.31016859 557.96199165 -121.14734818 538.44719473 -176.16455078 492.80664062 C-178.22337711 491.03545959 -180.226036 489.21355916 -182.19921875 487.34765625 C-184.1859002 485.48240185 -186.21138254 483.69834415 -188.2734375 481.91796875 C-192.48678055 478.24408243 -196.48786212 474.39195392 -200.4375 470.4375 C-201.13625244 469.73794189 -201.83500488 469.03838379 -202.55493164 468.31762695 C-207.93684503 462.87193348 -212.78191652 457.21924594 -217.5 451.1875 C-218.19867188 450.36765625 -218.89734375 449.5478125 -219.6171875 448.703125 C-256.20621104 405.7338091 -278.43534871 344.7960006 -278.703125 288.5546875 C-278.71009399 287.56773392 -278.71706299 286.58078033 -278.72424316 285.56391907 C-278.74154431 282.39673556 -278.74796256 279.22972879 -278.75 276.0625 C-278.75100708 274.98336334 -278.75201416 273.90422668 -278.75305176 272.79238892 C-278.74329597 257.37522996 -278.40732002 242.37258449 -275.5 227.1875 C-275.35546387 226.37829102 -275.21092773 225.56908203 -275.06201172 224.73535156 C-267.69951994 183.88697522 -251.59043494 145.29361217 -226.5 112.1875 C-226.06864746 111.61338379 -225.63729492 111.03926758 -225.19287109 110.44775391 C-218.46587602 101.53491523 -211.25219225 93.21965664 -203.5 85.1875 C-202.52836914 84.17502197 -202.52836914 84.17502197 -201.53710938 83.14208984 C-192.93562977 74.22017086 -184.23554707 65.82464327 -174.24462891 58.47460938 C-172.42369199 57.13120336 -170.62359299 55.7627484 -168.82421875 54.390625 C-147.84161714 38.52099372 -124.19403306 26.17278179 -99.5 17.1875 C-98.77071289 16.91744141 -98.04142578 16.64738281 -97.29003906 16.36914062 C-66.26494799 4.99280574 -32.96678479 -0.05314128 0 0 Z M-34.5 126.1875 C-35.21639648 126.35378906 -35.93279297 126.52007812 -36.67089844 126.69140625 C-65.12606871 133.33463666 -88.55706201 148.25029632 -109.5 168.1875 C-110.26828125 168.89132813 -111.0365625 169.59515625 -111.828125 170.3203125 C-127.41932881 185.0702643 -138.34172883 204.11799125 -145.5 224.1875 C-145.87898437 225.24195313 -146.25796875 226.29640625 -146.6484375 227.3828125 C-154.77781103 251.7709331 -155.94032596 282.21099411 -149.5 307.1875 C-149.32307617 307.89036133 -149.14615234 308.59322266 -148.96386719 309.31738281 C-138.14942668 351.21166615 -112.2142688 386.33428467 -75.02490234 408.67431641 C-62.41941265 415.95797203 -49.52086774 421.31146089 -35.5 425.1875 C-34.33694336 425.52201172 -34.33694336 425.52201172 -33.15039062 425.86328125 C-11.78970019 431.79984142 14.03449152 431.4165206 35.5 426.1875 C36.29728516 425.99414062 37.09457031 425.80078125 37.91601562 425.6015625 C56.78344578 420.83691139 73.85189986 412.72862369 89.5 401.1875 C90.42683594 400.50429688 91.35367188 399.82109375 92.30859375 399.1171875 C125.25093009 373.37027975 145.83742096 336.71763611 151.3125 295.375 C156.05571182 255.28257948 148.29868838 215.1606036 123.0625 182.9375 C102.02745527 156.66940033 75.29265497 137.31347796 42.8125 127.875 C41.98226318 127.63249512 41.15202637 127.38999023 40.29663086 127.14013672 C27.50513388 123.59910801 14.99668741 122.81248891 1.8125 122.875 C1.01563782 122.87682281 0.21877563 122.87864563 -0.60223389 122.88052368 C-12.17210984 122.92512266 -23.23042021 123.36441335 -34.5 126.1875 Z " fill="#000000" transform="translate(278.5,-0.1875)"/>
<path d="M0 0 C12.54 0 25.08 0 38 0 C38 2.64 38 5.28 38 8 C28.1 8 18.2 8 8 8 C8 13.94 8 19.88 8 26 C17.9 26 27.8 26 38 26 C38 28.64 38 31.28 38 34 C28.1 34 18.2 34 8 34 C8 40.6 8 47.2 8 54 C17.9 54 27.8 54 38 54 C38 56.64 38 59.28 38 62 C25.46 62 12.92 62 0 62 C0 41.54 0 21.08 0 0 Z " fill="#000000" transform="translate(307,245)"/>
<path d="M0 0 C2.31 0 4.62 0 7 0 C7 8.58 7 17.16 7 26 C17.23 26 27.46 26 38 26 C38 17.42 38 8.84 38 0 C40.31 0 42.62 0 45 0 C45 20.46 45 40.92 45 62 C42.69 62 40.38 62 38 62 C38 52.76 38 43.52 38 34 C27.77 34 17.54 34 7 34 C7 43.24 7 52.48 7 62 C4.69 62 2.38 62 0 62 C0 41.54 0 21.08 0 0 Z " fill="#000000" transform="translate(245,245)"/>
<path d="M0 0 C11.88 0 23.76 0 36 0 C36 2.64 36 5.28 36 8 C31.38 8 26.76 8 22 8 C22 25.82 22 43.64 22 62 C19.36 62 16.72 62 14 62 C14 44.18 14 26.36 14 8 C9.38 8 4.76 8 0 8 C0 5.36 0 2.72 0 0 Z " fill="#000000" transform="translate(197,245)"/>
</svg>
