<svg version="1.1" xmlns="http://www.w3.org/2000/svg" xmlns:xlink="http://www.w3.org/1999/xlink" x="0" y="0" width="400px" height="400px" viewBox="0, 0, 400, 400" transform="rotate(0) scale(1, 1)">
  <g id="Layer_1">
    <path d="M142.917,35.563 C143.292,35.655 143.667,35.746 144.054,35.841 C152.755,38.019 161.106,41.179 169.002,45.444 C169.257,45.579 169.513,45.715 169.776,45.855 C177.3,49.865 184.275,54.834 190.479,60.681 C191.456,61.58 192.463,62.406 193.505,63.228 C194.51,64.177 195.442,65.159 196.341,66.209 C196.652,66.571 196.964,66.932 197.284,67.304 C197.578,67.653 197.872,68.002 198.175,68.361 C199.036,69.335 199.036,69.335 200.619,69.156 C201.328,68.623 201.328,68.623 201.959,67.87 C202.207,67.598 202.455,67.325 202.711,67.044 C203.094,66.61 203.094,66.61 203.484,66.168 C205.449,63.972 207.461,61.971 209.709,60.066 C210.137,59.687 210.565,59.307 210.992,58.926 C215.971,54.533 221.374,50.778 227.098,47.42 C227.439,47.215 227.439,47.215 227.786,47.005 C238.819,40.371 251.243,36.315 263.853,33.982 C264.224,33.912 264.594,33.842 264.975,33.769 C270.552,32.759 276.136,32.686 281.786,32.673 C282.313,32.671 282.313,32.671 282.849,32.669 C289.55,32.654 296.021,33.239 302.585,34.624 C303.071,34.727 303.558,34.83 304.059,34.935 C320.012,38.413 335.212,45.141 348.034,55.324 C348.379,55.593 348.724,55.862 349.08,56.139 C352.319,58.719 355.32,61.553 358.31,64.414 C358.683,64.77 359.057,65.127 359.442,65.495 C361.76,67.759 363.806,70.177 365.819,72.713 C366.194,73.16 366.194,73.16 366.577,73.617 C370.772,78.66 374.214,84.318 377.28,90.103 C377.482,90.48 377.482,90.48 377.687,90.864 C379.997,95.219 381.875,99.718 383.604,104.331 C383.713,104.619 383.822,104.907 383.934,105.203 C385.981,110.692 387.241,116.371 388.346,122.115 C388.454,122.666 388.454,122.666 388.565,123.227 C390.764,135.041 390.231,148.232 388.346,160.056 C388.225,160.891 388.105,161.726 387.985,162.562 C385.791,177.475 381.285,191.72 374.937,205.378 C374.543,206.232 374.16,207.09 373.781,207.951 C371.693,212.621 369.119,216.991 366.493,221.375 C365.888,222.385 365.289,223.397 364.691,224.41 C360.89,230.791 356.583,236.827 351.987,242.656 C351.639,243.105 351.291,243.554 350.944,244.004 C347.34,248.658 343.512,253.093 339.516,257.413 C338.726,258.272 337.953,259.139 337.191,260.021 C335.941,261.462 334.655,262.867 333.362,264.27 C333.163,264.486 332.964,264.702 332.759,264.925 C330.967,266.863 329.152,268.67 327.088,270.321 C326.424,270.975 325.766,271.635 325.112,272.297 C319.036,278.439 319.036,278.439 316.789,280.336 C315.811,281.173 314.869,282.046 313.922,282.919 C312.166,284.521 310.36,286.036 308.51,287.527 C307.404,288.438 306.326,289.373 305.252,290.32 C302.615,292.641 299.906,294.821 297.1,296.934 C295.479,298.157 293.903,299.41 292.358,300.728 C289.81,302.881 287.122,304.831 284.428,306.797 C282.767,308.009 281.124,309.242 279.485,310.482 C275.555,313.454 271.551,316.3 267.503,319.108 C266.245,319.985 264.999,320.878 263.755,321.773 C260.789,323.902 257.777,325.963 254.763,328.023 C254.147,328.444 253.531,328.866 252.916,329.287 C251.96,329.941 251.004,330.595 250.048,331.249 C247.802,332.785 245.56,334.324 243.319,335.867 C241.944,336.813 240.567,337.757 239.188,338.698 C234.573,341.848 229.979,345.025 225.399,348.224 C224.719,348.699 224.038,349.174 223.358,349.648 C219.654,352.23 216.035,354.887 212.475,357.664 C212.05,357.988 211.624,358.312 211.197,358.635 C208.505,360.677 205.9,362.797 203.336,364.997 C202.314,365.867 201.277,366.712 200.224,367.544 C198.858,366.937 197.813,366.128 196.667,365.173 C196.284,364.856 195.901,364.538 195.506,364.211 C194.706,363.541 193.907,362.869 193.11,362.195 C190.951,360.377 188.774,358.634 186.476,356.995 C185.486,356.284 184.505,355.565 183.527,354.837 C179.795,352.059 176.016,349.37 172.165,346.758 C170.002,345.291 167.859,343.796 165.716,342.3 C161.639,339.457 157.536,336.651 153.425,333.856 C148.662,330.616 143.917,327.351 139.193,324.055 C137.037,322.551 134.872,321.063 132.695,319.589 C130.152,317.865 127.671,316.127 125.301,314.167 C124.141,313.239 122.937,312.379 121.724,311.523 C118.598,309.312 115.537,307.018 112.486,304.705 C112.201,304.489 111.915,304.273 111.621,304.051 C108.166,301.433 104.755,298.78 101.42,296.01 C100.712,295.434 100.004,294.857 99.296,294.281 C97.46,292.781 95.648,291.255 93.843,289.718 C92.525,288.597 91.188,287.505 89.835,286.426 C87.649,284.65 85.608,282.732 83.569,280.791 C82.273,279.559 80.965,278.35 79.613,277.179 C78.398,276.125 77.249,275.031 76.126,273.878 C74.928,272.664 73.718,271.502 72.421,270.395 C71.26,269.404 70.354,268.359 69.407,267.16 C68.832,266.687 68.257,266.214 67.676,265.748 C66.968,265.124 66.376,264.455 65.764,263.737 C64.302,262.046 62.774,260.428 61.231,258.811 C58.454,255.877 55.785,252.877 53.203,249.77 C52.901,249.408 52.901,249.408 52.592,249.038 C45.384,240.393 38.74,231.148 33.141,221.376 C32.778,220.743 32.412,220.111 32.045,219.481 C20.991,200.458 13.617,179.557 10.915,157.685 C10.864,157.267 10.864,157.267 10.811,156.841 C10.166,151.484 9.981,146.182 10.001,140.789 C10.002,140.391 10.003,139.992 10.004,139.582 C10.022,133.681 10.189,127.926 11.311,122.115 C11.381,121.741 11.45,121.367 11.523,120.981 C13.156,112.425 15.739,104.406 19.215,96.426 C19.344,96.126 19.474,95.826 19.607,95.517 C23.275,87.087 28.364,79.373 34.233,72.318 C34.397,72.119 34.56,71.92 34.729,71.714 C39.206,66.277 44.079,61.23 49.647,56.905 C49.928,56.667 50.209,56.429 50.499,56.184 C60.058,48.156 71.685,42.093 83.515,38.234 C84.34,37.962 85.161,37.68 85.982,37.394 C90.761,35.791 95.672,34.858 100.629,33.982 C100.993,33.916 101.357,33.849 101.732,33.781 C115.122,31.411 129.763,32.349 142.917,35.563 z" fill="#010057"/>
  </g>
</svg>