<svg version="1.1" xmlns="http://www.w3.org/2000/svg" xmlns:xlink="http://www.w3.org/1999/xlink" x="0" y="0" width="400px" height="400px" viewBox="0, 0, 400, 400" transform="rotate(0) scale(1, 1)">
  <g id="Layer_1">
    <path d="M143.417,36.063 C143.792,36.155 144.167,36.246 144.554,36.341 C153.255,38.519 161.606,41.679 169.502,45.944 C169.757,46.079 170.013,46.215 170.276,46.355 C177.8,50.365 184.775,55.334 190.979,61.181 C191.956,62.08 192.963,62.906 194.005,63.728 C195.01,64.677 195.942,65.659 196.841,66.709 C197.152,67.071 197.464,67.432 197.784,67.804 C198.078,68.153 198.372,68.502 198.675,68.861 C199.536,69.835 199.536,69.835 201.119,69.656 C201.828,69.123 201.828,69.123 202.459,68.37 C202.707,68.098 202.955,67.825 203.211,67.544 C203.594,67.11 203.594,67.11 203.984,66.668 C205.949,64.472 207.961,62.471 210.209,60.566 C210.637,60.187 211.065,59.807 211.492,59.426 C216.471,55.033 221.874,51.278 227.598,47.92 C227.939,47.715 227.939,47.715 228.286,47.505 C239.319,40.871 251.743,36.815 264.353,34.482 C264.724,34.412 265.094,34.342 265.475,34.269 C271.052,33.259 276.636,33.186 282.286,33.173 C282.813,33.171 282.813,33.171 283.349,33.169 C290.05,33.154 296.521,33.739 303.085,35.124 C303.571,35.227 304.058,35.33 304.559,35.435 C320.512,38.913 335.712,45.641 348.534,55.824 C348.879,56.093 349.224,56.362 349.58,56.639 C352.819,59.219 355.82,62.053 358.81,64.914 C359.183,65.27 359.557,65.627 359.942,65.995 C362.26,68.259 364.306,70.677 366.319,73.213 C366.694,73.66 366.694,73.66 367.077,74.117 C371.272,79.16 374.714,84.818 377.78,90.603 C377.982,90.98 377.982,90.98 378.187,91.364 C380.497,95.719 382.375,100.218 384.104,104.831 C384.213,105.119 384.322,105.407 384.434,105.703 C386.481,111.192 387.741,116.871 388.846,122.615 C388.954,123.166 388.954,123.166 389.065,123.727 C391.264,135.541 390.731,148.732 388.846,160.556 C388.725,161.391 388.605,162.226 388.485,163.062 C386.291,177.975 381.785,192.22 375.437,205.878 C375.043,206.732 374.66,207.59 374.281,208.451 C372.193,213.121 369.619,217.491 366.993,221.875 C366.388,222.885 365.789,223.897 365.191,224.91 C361.39,231.291 357.083,237.327 352.487,243.156 C352.139,243.605 351.791,244.054 351.444,244.504 C347.84,249.158 344.012,253.593 340.016,257.913 C339.226,258.772 338.453,259.639 337.691,260.521 C336.441,261.962 335.155,263.367 333.862,264.77 C333.663,264.986 333.464,265.202 333.259,265.425 C331.467,267.363 329.652,269.17 327.588,270.821 C326.924,271.475 326.266,272.135 325.612,272.797 C319.536,278.939 319.536,278.939 317.289,280.836 C316.311,281.673 315.369,282.546 314.422,283.419 C312.666,285.021 310.86,286.536 309.01,288.027 C307.904,288.938 306.826,289.873 305.752,290.82 C303.115,293.141 300.406,295.321 297.6,297.434 C295.979,298.657 294.403,299.91 292.858,301.228 C290.31,303.381 287.622,305.331 284.928,307.297 C283.267,308.509 281.624,309.742 279.985,310.982 C276.055,313.954 272.051,316.8 268.003,319.608 C266.745,320.485 265.499,321.378 264.255,322.273 C261.289,324.402 258.277,326.463 255.263,328.523 C254.647,328.944 254.031,329.366 253.416,329.787 C252.46,330.441 251.504,331.095 250.548,331.749 C248.302,333.285 246.06,334.824 243.819,336.367 C242.444,337.313 241.067,338.257 239.688,339.198 C235.073,342.348 230.479,345.525 225.899,348.724 C225.219,349.199 224.538,349.674 223.858,350.148 C220.154,352.73 216.535,355.387 212.975,358.164 C212.55,358.488 212.124,358.812 211.697,359.135 C209.005,361.177 206.4,363.297 203.836,365.497 C202.814,366.367 201.777,367.212 200.724,368.044 C199.358,367.437 198.313,366.628 197.167,365.673 C196.784,365.356 196.401,365.038 196.006,364.711 C195.206,364.041 194.407,363.369 193.61,362.695 C191.451,360.877 189.274,359.134 186.976,357.495 C185.986,356.784 185.005,356.065 184.027,355.337 C180.295,352.559 176.516,349.87 172.665,347.258 C170.502,345.791 168.359,344.296 166.216,342.8 C162.139,339.957 158.036,337.151 153.925,334.356 C149.162,331.116 144.417,327.851 139.693,324.555 C137.537,323.051 135.372,321.563 133.195,320.089 C130.652,318.365 128.171,316.627 125.801,314.667 C124.641,313.739 123.437,312.879 122.224,312.023 C119.098,309.812 116.037,307.518 112.986,305.205 C112.701,304.989 112.415,304.773 112.121,304.551 C108.666,301.933 105.255,299.28 101.92,296.51 C101.212,295.934 100.504,295.357 99.796,294.781 C97.96,293.281 96.148,291.755 94.343,290.218 C93.025,289.097 91.688,288.005 90.335,286.926 C88.149,285.15 86.108,283.232 84.069,281.291 C82.773,280.059 81.465,278.85 80.113,277.679 C78.898,276.625 77.749,275.531 76.626,274.378 C75.428,273.164 74.218,272.002 72.921,270.895 C71.76,269.904 70.854,268.859 69.907,267.66 C69.332,267.187 68.757,266.714 68.176,266.248 C67.468,265.624 66.876,264.955 66.264,264.237 C64.802,262.546 63.274,260.928 61.731,259.311 C58.954,256.377 56.285,253.377 53.703,250.27 C53.401,249.908 53.401,249.908 53.092,249.538 C45.884,240.893 39.24,231.648 33.641,221.876 C33.278,221.243 32.912,220.611 32.545,219.981 C21.491,200.958 14.117,180.057 11.415,158.185 C11.364,157.767 11.364,157.767 11.311,157.341 C10.666,151.984 10.481,146.682 10.501,141.289 C10.502,140.891 10.503,140.492 10.504,140.082 C10.522,134.181 10.689,128.426 11.811,122.615 C11.881,122.241 11.95,121.867 12.023,121.481 C13.656,112.925 16.239,104.906 19.715,96.926 C19.844,96.626 19.974,96.326 20.107,96.017 C23.775,87.587 28.864,79.873 34.733,72.818 C34.897,72.619 35.06,72.42 35.229,72.214 C39.706,66.777 44.579,61.73 50.147,57.405 C50.428,57.167 50.709,56.929 50.999,56.684 C60.558,48.656 72.185,42.593 84.015,38.734 C84.84,38.462 85.661,38.18 86.482,37.894 C91.261,36.291 96.172,35.358 101.129,34.482 C101.493,34.416 101.857,34.349 102.232,34.281 C115.622,31.911 130.263,32.849 143.417,36.063 z" fill-opacity="0" stroke="#010057" stroke-width="13"/>
  </g>
</svg>