<?xml version="1.0" encoding="UTF-8"?>
<svg version="1.1" xmlns="http://www.w3.org/2000/svg" width="864" height="864">
<path d="M0 0 C0.92256592 0.50370117 0.92256592 0.50370117 1.86376953 1.01757812 C19.37607717 10.71443773 37.20077158 23.71099815 49.796875 39.41015625 C50.52390625 40.26480469 51.2509375 41.11945313 52 42 C52.66 42 53.32 42 54 42 C55.56864082 40.4492093 55.56864082 40.4492093 57.1875 38.4375 C71.14295167 22.1036038 89.07482956 9.0454722 108.01904297 -0.95019531 C109.93243271 -1.96419284 111.82726558 -3.00753801 113.72265625 -4.0546875 C130.83017384 -13.28204086 149.88196485 -18.8280656 169 -22 C169.66386719 -22.11569336 170.32773437 -22.23138672 171.01171875 -22.35058594 C218.89919779 -30.40352029 270.32023938 -17.34807747 309.92236328 10.34423828 C318.18591977 16.24163978 325.94094154 22.50325034 333.3203125 29.47265625 C335.76635759 31.77964047 338.26828598 33.99022426 340.8125 36.1875 C344.93191741 39.85083905 348.50583702 43.74148887 352 48 C352.43183594 48.51949219 352.86367188 49.03898437 353.30859375 49.57421875 C391.2030166 95.27345498 413.54271897 154.49206533 408.48217773 214.27392578 C403.82171436 261.46663058 383.02819944 304.00327522 354 341 C353.38382813 341.79664063 352.76765625 342.59328125 352.1328125 343.4140625 C348.04186315 348.62535482 343.76042244 353.66854513 339.4375 358.6875 C338.90737305 359.30536377 338.37724609 359.92322754 337.83105469 360.55981445 C334.54311632 364.34965469 331.11375155 367.9341373 327.54223633 371.45727539 C325.80922279 373.19083761 324.20136536 374.99837457 322.625 376.875 C317.00023374 383.38060213 310.88703605 389.32634984 304.36328125 394.921875 C301.18295816 397.71845663 298.09526934 400.60994189 295 403.5 C290.073954 408.09050187 285.12590196 412.63208724 280 417 C279.00355469 417.85207031 278.00710938 418.70414063 276.98046875 419.58203125 C271.29205567 424.43057823 265.56319597 429.21467061 259.703125 433.85546875 C257.6635436 435.47357596 255.63353846 437.10109021 253.609375 438.73828125 C245.27395473 445.46915807 236.79578485 451.9726392 228.19677734 458.36230469 C225.85055315 460.11141248 223.51242848 461.87093317 221.17578125 463.6328125 C212.42042449 470.23129949 203.62341994 476.75961651 194.71923828 483.15600586 C188.47485743 487.64419746 182.2838116 492.20189693 176.10083008 496.77416992 C171.53423801 500.14651583 166.94623458 503.48551788 162.33227539 506.79272461 C154.07441195 512.71233671 145.95994819 518.79729668 137.89819336 524.98120117 C132.04935563 529.46124206 126.14081406 533.84759302 120.1875 538.1875 C112.83214916 543.561248 105.73614264 549.19003709 98.703125 554.9765625 C94.28429039 558.60550181 89.75186148 562.07410326 85.20703125 565.54296875 C82.3945968 567.69100774 79.60416752 569.86574628 76.82250977 572.0534668 C75.65690043 572.9700765 74.48943996 573.88433748 73.32006836 574.79614258 C70.22572666 577.21522958 67.18073067 579.67675717 64.1796875 582.2109375 C63.55312256 582.72986572 62.92655762 583.24879395 62.28100586 583.78344727 C61.07677554 584.78226789 59.8841743 585.79532444 58.70532227 586.82397461 C57.05859375 588.17578125 57.05859375 588.17578125 54 590 C49.46801325 589.29253375 46.34084117 585.96918343 43 583 C38.61594112 579.19702126 34.18317149 575.51233236 29.5625 572 C29.02874756 571.59386475 28.49499512 571.18772949 27.94506836 570.76928711 C26.85279106 569.93835925 25.76042388 569.10754952 24.66796875 568.27685547 C21.7787728 566.06513199 18.92093732 563.81374773 16.0625 561.5625 C15.18295654 560.87063599 15.18295654 560.87063599 14.28564453 560.16479492 C11.43470633 557.92108071 8.586849 555.6735406 5.7421875 553.421875 C-14.53148464 537.39757421 -35.26530254 521.99193123 -56.23339844 506.89160156 C-64.06930393 501.24277829 -71.84011374 495.50673423 -79.60888672 489.76611328 C-82.78021152 487.4237237 -85.95429713 485.08509337 -89.12866211 482.74682617 C-90.70651125 481.58451683 -92.28414885 480.42192025 -93.86157227 479.2590332 C-97.89158097 476.28821745 -101.92408929 473.32089173 -105.9609375 470.359375 C-115.06025169 463.67946925 -124.09924793 456.94281167 -133 450 C-133.53866699 449.58218262 -134.07733398 449.16436523 -134.63232422 448.73388672 C-143.22479478 442.06865249 -151.65316749 435.21838097 -160.02734375 428.28125 C-163.24509239 425.61639743 -166.49309383 422.99190278 -169.75 420.375 C-174.41594998 416.56838023 -178.84483743 412.54100499 -183.23535156 408.42333984 C-186.0647797 405.77041154 -188.92986245 403.17520446 -191.859375 400.6328125 C-196.1939473 396.85952567 -200.38562317 392.94629811 -204.5625 389 C-205.27857422 388.32710937 -205.99464844 387.65421875 -206.73242188 386.9609375 C-218.66224551 375.71498911 -218.66224551 375.71498911 -223.3125 370.25 C-226.05798122 367.05814878 -228.88589615 363.96081173 -231.75 360.875 C-237.04182076 355.07003298 -241.87237691 348.96396302 -246.65625 342.73779297 C-247.93382555 341.08557953 -249.22880114 339.44904625 -250.53125 337.81640625 C-286.65460111 292.03348814 -308.28803754 234.8428408 -302.22851562 176.10986328 C-297.85085771 139.14767708 -285.09806136 102.76625009 -264 72 C-263.58508301 71.39124023 -263.17016602 70.78248047 -262.74267578 70.15527344 C-252.76028326 55.60961113 -241.59198754 41.04797553 -227.9921875 29.6875 C-226.58785591 28.49794853 -225.22069187 27.26382701 -223.8828125 26 C-164.04158685 -30.41597031 -71.09648182 -39.03336257 0 0 Z " fill="#000000" transform="translate(379,149)"/>
</svg>
